<?xml version="1.0" encoding="utf-8"?>

<svg id="icon" xmlns="http://www.w3.org/2000/svg" viewBox="0 0 24 24">
  <path d="M12 2.2c3 0 3.4 0 4.6.1 1.1.1 1.8.3 2.2.5.5.3.8.6 1.2 1 .4.4.7.7 1 1.2.2.4.4 1.1.5 2.2.1 1.2.1 1.6.1 4.6s0 3.4-.1 4.6c-.1 1.1-.3 1.8-.5 2.2-.3.5-.6.8-1 1.2-.4.4-.7.7-1.2 1-.4.2-1.1.4-2.2.5-1.2.1-1.6.1-4.6.1s-3.4 0-4.6-.1c-1.1-.1-1.8-.3-2.2-.5-.5-.3-.8-.6-1.2-1-.4-.4-.7-.7-1-1.2-.2-.4-.4-1.1-.5-2.2C2.2 15.4 2.2 15 2.2 12s0-3.4.1-4.6c.1-1.1.3-1.8.5-2.2.3-.5.6-.8 1-1.2.4-.4.7-.7 1.2-1 .4-.2 1.1-.4 2.2-.5C8.6 2.2 9 2.2 12 2.2z"/>
</svg>
